
<region>
sample=../Samples/lofi/hh/lofi_hh_open_vl1_rr1.flac
hivel=31
seq_length=3
amp_velcurve_31=1

<region>
sample=../Samples/lofi/hh/lofi_hh_open_vl1_rr2.flac
hivel=31
seq_length=3
seq_position=2
amp_velcurve_31=1

<region>
sample=../Samples/lofi/hh/lofi_hh_open_vl1_rr3.flac
hivel=31
seq_length=3
seq_position=3
amp_velcurve_31=1

<region>
sample=../Samples/lofi/hh/lofi_hh_open_vl2_rr1.flac
lovel=32
hivel=63
seq_length=3
amp_velcurve_63=1

<region>
sample=../Samples/lofi/hh/lofi_hh_open_vl2_rr2.flac
lovel=32
hivel=63
seq_length=3
seq_position=2
amp_velcurve_63=1

<region>
sample=../Samples/lofi/hh/lofi_hh_open_vl2_rr3.flac
lovel=32
hivel=63
seq_length=3
seq_position=3
amp_velcurve_63=1

<region>
sample=../Samples/lofi/hh/lofi_hh_open_vl3_rr1.flac
lovel=64
hivel=95
seq_length=3
amp_velcurve_95=1

<region>
sample=../Samples/lofi/hh/lofi_hh_open_vl3_rr2.flac
lovel=64
hivel=95
seq_length=3
seq_position=2
amp_velcurve_95=1

<region>
sample=../Samples/lofi/hh/lofi_hh_open_vl3_rr3.flac
lovel=64
hivel=95
seq_length=3
seq_position=3
amp_velcurve_95=1

<region>
sample=../Samples/lofi/hh/lofi_hh_open_vl4_rr1.flac
lovel=96
seq_length=3

<region>
sample=../Samples/lofi/hh/lofi_hh_open_vl4_rr2.flac
lovel=96
seq_length=3
seq_position=2

<region>
sample=../Samples/lofi/hh/lofi_hh_open_vl4_rr3.flac
lovel=96
seq_length=3
seq_position=3

